<?xml version="1.0" encoding="utf-8"?>
<!-- Generator: Adobe Illustrator 24.0.2, SVG Export Plug-In . SVG Version: 6.00 Build 0)  -->
<svg version="1.1" id="Слой_1" xmlns="http://www.w3.org/2000/svg" xmlns:xlink="http://www.w3.org/1999/xlink" x="0px" y="0px"
	 viewBox="0 0 1280 1280" style="enable-background:new 0 0 1280 1280;" xml:space="preserve">
<g>
	<polygon points="320.5,607.5 320.5,416.5 383.5,416.5 383.5,544.5 447.5,544.5 447.5,607.5 	"/>
	<path d="M383,417v127v1h1h63v62H321V417H383 M384,416h-64v192h128v-64h-64V416L384,416z"/>
</g>
<g>
	<polygon points="448.5,863.5 448.5,831.5 383.5,831.5 383.5,863.5 320.5,863.5 320.5,672.5 511.5,672.5 511.5,767.5 448.5,767.5 
		448.5,735.5 383.5,735.5 383.5,768.5 447.5,768.5 447.5,800.5 511.5,800.5 511.5,863.5 	"/>
	<path d="M511,673v94h-62v-31v-1h-1h-64h-1v1v32v1h1h63v31v1h1h63v62h-62v-31v-1h-1h-64h-1v1v31h-62V673H511 M512,672H320v192h64
		v-32h64v32h64v-64h-64v-32h-64v-32h64v32h64V672L512,672z"/>
</g>
<g>
	<path d="M704.5,863.5v-32h-65v32h-63v-191h191v191H704.5z M639.5,768.5h65v-33h-65V768.5z"/>
	<path d="M767,673v190h-62v-31v-1h-1h-64h-1v1v31h-62V673H767 M639,769h1h64h1v-1v-32v-1h-1h-64h-1v1v32V769 M768,672H576v192h64
		v-32h64v32h64V672L768,672z M640,768v-32h64v32H640L640,768z"/>
</g>
<g>
	<polygon points="832.5,863.5 832.5,672.5 959.5,672.5 959.5,735.5 895.5,735.5 895.5,768.5 1023.5,768.5 1023.5,831.5 895.5,831.5 
		895.5,863.5 	"/>
	<path d="M959,673v62h-63h-1v1v32v1h1h127v62H896h-1v1v31h-62V673H959 M960,672H832v192h64v-32h128v-64H896v-32h64V672L960,672z"/>
</g>
<g>
	<polygon points="1088.5,863.5 1088.5,735.5 1024.5,735.5 1024.5,672.5 1215.5,672.5 1215.5,735.5 1151.5,735.5 1151.5,863.5 	"/>
	<path d="M1215,673v62h-63h-1v1v127h-62V736v-1h-1h-63v-62H1215 M1216,672h-192v64h64v128h64V736h64V672L1216,672z"/>
</g>
<g>
	<polygon points="512.5,607.5 512.5,479.5 448.5,479.5 448.5,416.5 639.5,416.5 639.5,479.5 575.5,479.5 575.5,607.5 	"/>
	<path d="M639,417v62h-63h-1v1v127h-62V480v-1h-1h-63v-62H639 M640,416H448v64h64v128h64V480h64V416L640,416z"/>
</g>
<g>
	<polygon points="896.5,607.5 896.5,479.5 831.5,479.5 831.5,607.5 768.5,607.5 768.5,479.5 704.5,479.5 704.5,416.5 959.5,416.5 
		959.5,607.5 	"/>
	<path d="M959,417v190h-62V480v-1h-1h-64h-1v1v127h-62V480v-1h-1h-63v-62H959 M960,416H704v64h64v128h64V480h64v128h64V416L960,416z
		"/>
</g>
<g>
	<rect x="640.5" y="512.5" width="63" height="127"/>
	<path d="M703,513v126h-62V513H703 M704,512h-64v128h64V512L704,512z"/>
</g>
<g>
	<path d="M1152.5,607.5v-32h-65v32h-63v-191h191v191H1152.5z M1087.5,512.5h65v-33h-65V512.5z"/>
	<path d="M1215,417v190h-62v-31v-1h-1h-64h-1v1v31h-62V417H1215 M1087,513h1h64h1v-1v-32v-1h-1h-64h-1v1v32V513 M1216,416h-192v192
		h64v-32h64v32h64V416L1216,416z M1088,512v-32h64v32H1088L1088,512z"/>
</g>
<g>
	<polygon points="64.5,607.5 64.5,416.5 127.5,416.5 127.5,544.5 192.5,544.5 192.5,416.5 255.5,416.5 255.5,607.5 	"/>
	<path d="M255,417v190H65V417h62v127v1h1h64h1v-1V417H255 M256,416h-64v128h-64V416H64v192h192V416L256,416z"/>
</g>
<g>
	<polygon points="64.5,863.5 64.5,672.5 255.5,672.5 255.5,735.5 127.5,735.5 127.5,800.5 255.5,800.5 255.5,863.5 	"/>
	<path d="M255,673v62H128h-1v1v64v1h1h127v62H65V673H255 M256,672H64v192h192v-64H128v-64h128V672L256,672z"/>
</g>
</svg>
